<?xml version="1.0" encoding="UTF-8" standalone="no"?><!DOCTYPE svg PUBLIC "-//W3C//DTD SVG 1.1//EN" "http://www.w3.org/Graphics/SVG/1.1/DTD/svg11.dtd"><svg width="9539px" height="2251px" version="1.1" xmlns="http://www.w3.org/2000/svg" xmlns:xlink="http://www.w3.org/1999/xlink" xml:space="preserve" xmlns:serif="http://www.serif.com/" style="fill-rule:evenodd;clip-rule:evenodd;stroke-linejoin:round;stroke-miterlimit:2;"><g transform="matrix(1,0,0,1,0,-8037.51)"><g id="Artboard2" transform="matrix(1,0,0,0.731304,0,2462.04)"><rect x="0" y="7624.01" width="9538.62" height="3077.89" style="fill:none;"/><g transform="matrix(1.16096,0,0,1.58752,-896.025,-5375.03)"><g transform="matrix(1,0,0,1.02931,-1.25791,-207.911)"><path d="M773.053,10008.3L773.053,8179.18L1677.01,8179.18C1839.09,8179.18 1970.84,8190.4 2072.25,8212.84C2206.91,8243.59 2312.47,8289.73 2388.95,8351.24C2465.42,8412.75 2524.02,8494.62 2564.75,8596.86C2605.48,8699.1 2625.84,8839.16 2625.84,9017.05C2625.84,9195.76 2607.14,9351.2 2569.74,9483.36C2532.33,9615.52 2475.81,9722.75 2400.17,9805.04C2351.12,9858.24 2294.19,9897.72 2229.35,9923.49C2091.37,9980.01 1935.93,10008.3 1763.04,10008.3L773.053,10008.3ZM1432.63,8776.41L1432.63,9490.84L1600.95,9490.84C1690.72,9490.84 1758.26,9480.87 1803.56,9460.92C1848.86,9440.97 1884.39,9402.94 1910.16,9346.83C1935.93,9290.72 1948.81,9206.15 1948.81,9093.1C1948.81,9008.32 1938.84,8944.52 1918.89,8901.71C1898.94,8858.91 1871.1,8828.77 1835.35,8811.32C1784.65,8788.04 1710.25,8776.41 1612.17,8776.41L1432.63,8776.41Z" style="fill:rgb(255,190,0);fill-rule:nonzero;"/></g><g transform="matrix(1,0,0,1.00466,-219.611,-11.2703)"><path d="M2901.39,8184.16L3598.37,8184.16L3598.37,9378.63C3598.37,9445.95 3607.51,9491.26 3625.8,9514.53C3657.39,9556.09 3715.16,9576.87 3799.11,9576.87C3884.73,9576.87 3943.74,9557.75 3976.16,9519.52C3996.94,9495.41 4007.33,9449.28 4007.33,9381.12L4007.33,8184.16L4706.8,8184.16L4706.8,9443.46C4706.8,9529.91 4694.34,9608.04 4669.4,9677.86C4644.46,9747.69 4607.47,9807.95 4558.43,9858.66C4523.52,9896.06 4477.59,9929.31 4420.66,9958.4C4363.72,9987.5 4305.32,10008.3 4245.48,10020.7C4122.45,10045.7 3980.32,10058.1 3819.06,10058.1C3651.15,10058.1 3503.2,10046.5 3375.19,10023.2C3304.53,10009.9 3236.17,9985.21 3170.09,9949.05C3104,9912.89 3052.68,9873.62 3016.1,9831.23C2979.53,9788.83 2951.27,9735.84 2931.32,9672.25C2911.37,9608.67 2901.39,9525.75 2901.39,9423.51L2901.39,8184.16Z" style="fill:rgb(255,190,0);fill-rule:nonzero;"/></g><g transform="matrix(1,0,0,0.978613,-427.989,264.937)"><path d="M6577.05,8250.24L6577.05,8861.19C6407.48,8829.6 6256.2,8813.81 6123.2,8813.81C6010.16,8813.81 5926.41,8825.86 5871.97,8849.97C5817.52,8874.08 5778.25,8906.49 5754.14,8947.22C5730.03,8987.95 5717.98,9045.72 5717.98,9120.53C5717.98,9205.32 5729.83,9269.32 5753.52,9312.54C5777.21,9355.77 5813.36,9389.22 5861.99,9412.91C5910.62,9436.6 5982.73,9448.45 6078.32,9448.45C6148.14,9448.45 6229.6,9442.21 6322.69,9429.75C6415.79,9417.28 6496.42,9402.32 6564.58,9384.86L6564.58,9939.7C6468.99,9976.27 6380.05,10002.5 6297.76,10018.2C6170.58,10042.4 6039.66,10054.4 5905.01,10054.4C5747.91,10054.4 5601.2,10031.5 5464.88,9985.83C5355.99,9949.26 5263.93,9890.03 5188.7,9808.16C5113.48,9726.28 5060.49,9633.4 5029.73,9529.49C4991.5,9398.99 4972.38,9261.42 4972.38,9116.79C4972.38,8926.44 4990.66,8765.18 5027.24,8633.02C5048.85,8555.72 5086.67,8483.19 5140.7,8415.45C5194.73,8347.7 5266.21,8289.31 5355.15,8240.27C5420.82,8203.7 5498.96,8176.27 5589.56,8157.98C5680.16,8139.69 5779.91,8130.55 5888.8,8130.55C6022.62,8130.55 6143.36,8140.32 6251,8159.85C6358.65,8179.38 6467.33,8209.51 6577.05,8250.24Z" style="fill:rgb(255,190,0);fill-rule:nonzero;"/></g><g transform="matrix(1,0,0,1.03213,-631.381,-225.486)"><path d="M6837.64,10008.3L6837.64,8184.16L7520.9,8184.16L7520.9,8893.61L7928.61,8184.16L8759,8184.16L8090.7,9085.62L8778.95,10008.3L7933.6,10008.3L7520.9,9292.59L7520.9,10008.3L6837.64,10008.3Z" style="fill:rgb(255,190,0);fill-rule:nonzero;"/></g><g transform="matrix(1,0,0,1,-889.475,84.8158)"><path d="M9716.57,9428.5L9205.37,9428.5L9052.01,8447.24L9040.78,8374.93C9038.29,8357.47 9037.05,8340.85 9037.05,8325.05C9037.05,8276.84 9044.94,8240.27 9060.74,8215.33C9076.53,8190.4 9101.05,8171.07 9134.3,8157.36C9167.55,8143.64 9227.81,8136.78 9315.09,8136.78C9537.85,8136.78 9665.86,8138.45 9699.11,8141.77C9763.12,8147.59 9808.83,8163.38 9836.26,8189.15C9863.69,8214.92 9877.41,8255.65 9877.41,8311.34C9877.41,8327.13 9874.08,8357.06 9867.43,8401.11L9716.57,9428.5ZM9465.95,9546.95L9604.35,9546.95C9649.24,9546.95 9683.94,9553.81 9708.46,9567.52C9732.98,9581.24 9752.73,9604.3 9767.69,9636.72C9778.49,9662.49 9783.9,9703.63 9783.9,9760.16C9783.9,9805.04 9781.4,9849.93 9776.42,9894.81C9773.09,9920.58 9766.65,9940.53 9757.09,9954.66C9747.53,9968.79 9733.4,9981.05 9714.7,9991.44C9696,10001.8 9665.45,10009.9 9623.06,10015.8C9598.12,10018.2 9545.75,10019.5 9465.95,10019.5L9383.66,10019.5C9312.18,10019.5 9261.06,10013.7 9230.3,10002C9199.55,9990.4 9176.07,9970.87 9159.86,9943.44C9143.65,9916.01 9135.54,9873.2 9135.54,9815.02C9135.54,9781.77 9138.04,9736.88 9143.02,9680.36C9145.52,9653.76 9154.45,9629.86 9169.83,9608.67C9185.21,9587.47 9203.91,9571.68 9225.94,9561.29C9247.97,9550.9 9288.49,9545.7 9347.51,9545.7L9465.95,9546.95Z" style="fill:rgb(255,190,0);fill-rule:nonzero;"/></g></g></g></g></svg>