<?xml version="1.0" encoding="UTF-8" standalone="no"?><!DOCTYPE svg PUBLIC "-//W3C//DTD SVG 1.1//EN" "http://www.w3.org/Graphics/SVG/1.1/DTD/svg11.dtd"><svg width="2878px" height="2878px" version="1.1" xmlns="http://www.w3.org/2000/svg" xmlns:xlink="http://www.w3.org/1999/xlink" xml:space="preserve" xmlns:serif="http://www.serif.com/" style="fill-rule:evenodd;clip-rule:evenodd;stroke-linejoin:round;stroke-miterlimit:2;"><g transform="matrix(1,0,0,1,0,-12203)"><g id="Artboard1" transform="matrix(1.08487,0,0,1.08487,82.8222,12294)"><rect x="-76.343" y="-83.901" width="2652.68" height="2652.68" style="fill:none;"/><clipPath id="_clip1"><rect x="-76.343" y="-83.901" width="2652.68" height="2652.68"/></clipPath><g clip-path="url(#_clip1)"><g transform="matrix(0.933494,0,0,0.933494,-76.3427,-11497.9)"><path d="M0,14660L0,12648.2L965.938,12648.2C1139.14,12648.2 1279.92,12660.5 1388.29,12685.2C1532.18,12719 1644.98,12769.8 1726.7,12837.4C1808.41,12905.1 1871.03,12995.1 1914.56,13107.6C1958.08,13220 1979.84,13374.1 1979.84,13569.7C1979.84,13766.3 1959.86,13937.3 1919.88,14082.6C1879.91,14228 1819.52,14345.9 1738.69,14436.4C1686.28,14495 1625.44,14538.4 1556.16,14566.7C1408.71,14628.9 1242.62,14660 1057.87,14660L0,14660ZM704.802,13305.1L704.802,14090.9L884.666,14090.9C980.593,14090.9 1052.76,14079.9 1101.17,14057.9C1149.58,14036 1187.55,13994.2 1215.08,13932.5C1242.62,13870.7 1256.38,13777.7 1256.38,13653.4C1256.38,13560.1 1245.73,13490 1224.41,13442.9C1203.09,13395.8 1173.34,13362.7 1135.14,13343.5C1080.96,13317.9 1001.47,13305.1 896.657,13305.1L704.802,13305.1ZM2669.8,14016.3L2123.55,14016.3L1959.67,12967.8L1947.68,12890.5C1945.02,12871.8 1943.68,12854.1 1943.68,12837.2C1943.68,12785.7 1952.12,12746.6 1969,12719.9C1985.88,12693.3 2012.08,12672.6 2047.61,12658C2083.14,12643.3 2147.53,12636 2240.8,12636C2478.84,12636 2615.62,12637.8 2651.15,12641.3C2719.55,12647.6 2768.4,12664.4 2797.71,12692C2827.02,12719.5 2841.68,12763 2841.68,12822.5C2841.68,12839.4 2838.12,12871.4 2831.02,12918.5L2669.8,14016.3ZM2402.01,14142.9L2549.89,14142.9C2597.86,14142.9 2634.94,14150.2 2661.14,14164.9C2687.35,14179.5 2708.44,14204.2 2724.43,14238.8C2735.98,14266.3 2741.75,14310.3 2741.75,14370.7C2741.75,14418.7 2739.09,14466.6 2733.76,14514.6C2730.2,14542.1 2723.32,14563.4 2713.11,14578.5C2702.89,14593.6 2687.79,14606.7 2667.81,14617.8C2647.82,14628.9 2615.18,14637.6 2569.88,14643.8C2543.23,14646.5 2487.28,14647.8 2402.01,14647.8L2314.07,14647.8C2237.69,14647.8 2183.06,14641.6 2150.2,14629.2C2117.33,14616.7 2092.24,14595.9 2074.92,14566.6C2057.6,14537.2 2048.94,14491.5 2048.94,14429.3C2048.94,14393.8 2051.6,14345.8 2056.93,14285.4C2059.6,14257 2069.15,14231.5 2085.58,14208.8C2102.01,14186.2 2121.99,14169.3 2145.53,14158.2C2169.07,14147.1 2212.37,14141.5 2275.43,14141.5L2402.01,14142.9Z" style="fill:rgb(255,190,0);"/></g></g></g></g></svg>